# xmcd
#
# Track frame offsets:
#	150
#	25535
#	39170
#	58714
#	76837
#	99637
#	119410
#	132177
#	148860
#	170465
#
# Disc length: 2619
#
# Revision: 1
# Processed by: cddbd v1.5.1PL0 Copyright (c) Steve Scherf et al.
# Submitted via: ExactAudioCopy v0.90b4
# Normalized: r0:DSETVAR1
#
DISCID=7c0a390a
DTITLE=Various Artist - Like Desperados
DYEAR=1998
DGENRE=Country
TTITLE0=David Allan Coe - Desparados Waiting For a Train
TTITLE1=Johnny Cash - Don't Take Your Guns To Town
TTITLE2=Marty Robbins - El Paso
TTITLE3=Willie Nelson - Red Headed Stranger
TTITLE4=Johnny Paycheck - The Outlaw's Prayer
TTITLE5=Bobby Bare - Tequila Sheila
TTITLE6=Billy Walker - Cros the Brazos at Waco
TTITLE7=Johnny Rodriguez - North of the Border
TTITLE8=Willie Nelson - Pancho and Lefty
TTITLE9=The Charlie Daniels Band - Billy the Kid
EXTD=
EXTT0=
EXTT1=
EXTT2=
EXTT3=
EXTT4=
EXTT5=
EXTT6=
EXTT7=
EXTT8=
EXTT9=
PLAYORDER=
